<?xml version="1.0" encoding="UTF-8" standalone="no"?>
<svg width="107px" height="49px" viewBox="0 0 107 49" version="1.1" xmlns="http://www.w3.org/2000/svg" xmlns:xlink="http://www.w3.org/1999/xlink">
    <!-- Generator: Sketch 3.8.3 (29802) - http://www.bohemiancoding.com/sketch -->
    <title>Page 1</title>
    <desc>Created with Sketch.</desc>
    <defs>
        <polygon id="path-1" points="20.3202703 22.1428378 20.3202703 0.765810811 0.235540541 0.765810811 0.235540541 22.1428378 20.3202703 22.1428378"></polygon>
        <polygon id="path-3" points="61.9736486 0.497297297 0.138513514 0.497297297 0.138513514 23.325 61.9736486 23.325 61.9736486 0.497297297"></polygon>
    </defs>
    <g id="Symbols" stroke="none" stroke-width="1" fill="none" fill-rule="evenodd">
        <g id="Menu" transform="translate(-121.000000, -19.000000)">
            <g id="Page-1" transform="translate(121.000000, 18.000000)">
                <path d="M18.9162162,41.9064865 C18.9162162,43.7213514 18.2094595,45.442973 16.9783784,46.642973 C15.7797297,47.8727027 14.1175676,48.6416216 11.3810811,48.6416216 L0,48.6416216 L0,27.3281081 L9.68918919,27.297027 C12.5189189,27.297027 13.8094595,27.9727027 15.0716216,29.2348649 C16.3013514,30.4956757 16.6702703,32.0024324 16.6702703,33.7564865 C16.6702703,35.2321622 16.2094595,36.2159459 15.7175676,36.647027 C16.0243243,36.6781081 16.5175676,36.8308108 16.9783784,37.292973 C18.2702703,38.5848649 18.9162162,40.0605405 18.9162162,41.9064865 L18.9162162,41.9064865 Z M5.87162162,32.2172973 L5.87162162,35.3240541 L8.88648649,35.3240541 C9.53243243,35.3240541 9.96351351,35.1091892 10.2094595,34.8632432 C10.4851351,34.5862162 10.6702703,34.1862162 10.6702703,33.7564865 C10.6702703,32.8943243 9.99324324,32.2172973 9.13243243,32.2172973 L5.87162162,32.2172973 Z M12.4243243,41.9064865 C12.4243243,41.0145946 11.6851351,40.3064865 10.8243243,40.3064865 L5.87162162,40.3064865 L5.87162162,43.5672973 L10.4243243,43.5672973 C11.1932432,43.5672973 11.6554054,43.3524324 11.9310811,43.0754054 C12.2391892,42.7672973 12.4243243,42.3686486 12.4243243,41.9064865 L12.4243243,41.9064865 Z" id="Fill-1" fill="#000000"></path>
                <path d="M84.9460811,27.3277027 L84.9460811,40.3074324 C84.9460811,42.8290541 84.0541892,45.0439189 82.2704054,46.797973 C80.4866216,48.5817568 78.3028378,49.5033784 75.7501351,49.5033784 C73.2285135,49.5033784 71.0744595,48.5817568 69.2595946,46.797973 C67.4758108,45.0439189 66.5839189,42.8290541 66.5839189,40.3074324 L66.5839189,27.3277027 L73.2285135,27.3277027 L73.2285135,40.3074324 C73.2285135,41.7222973 74.365,42.8290541 75.7501351,42.8290541 C77.165,42.8290541 78.3028378,41.7222973 78.3028378,40.3074324 L78.3028378,27.3277027 L84.9460811,27.3277027 Z" id="Fill-3" fill="#000000"></path>
                <g id="Group-7" transform="translate(86.486486, 26.530405)">
                    <mask id="mask-2" fill="white">
                        <use xlink:href="#path-1"></use>
                    </mask>
                    <g id="Clip-6"></g>
                    <polygon id="Fill-5" fill="#000000" mask="url(#mask-2)" points="20.3206757 22.1117568 13.7693243 22.1117568 13.7071622 22.1428378 6.84905405 12.2698649 6.84905405 22.1117568 0.235540541 22.1117568 0.235540541 0.796891892 6.84905405 0.765810811 13.6774324 10.4860811 13.6774324 0.765810811 20.3206757 0.765810811"></polygon>
                </g>
                <polygon id="Fill-8" fill="#000000" points="65.0909459 27.2967568 56.7341892 27.2967568 50.9733784 34.6778378 50.9733784 27.2967568 44.3301351 27.2967568 44.3301351 37.9697297 44.3301351 48.6427027 50.9733784 48.6427027 50.9733784 41.2602703 56.7341892 48.6427027 65.0909459 48.6427027 57.0193243 37.9697297"></polygon>
                <path d="M39.3856757,46.1202703 C37.1397297,48.3351351 34.4654054,49.472973 31.2964865,49.472973 C28.1289189,49.472973 25.4532432,48.3351351 23.2072973,46.1202703 C20.9924324,43.8743243 19.8545946,41.1689189 19.8545946,38.0310811 C19.8545946,34.8635135 20.9924324,32.1567568 23.2072973,29.9418919 C25.4532432,27.6959459 28.1289189,26.5581081 31.2964865,26.5581081 C34.4654054,26.5581081 37.1397297,27.6959459 39.3856757,29.9418919 C41.6316216,32.1567568 42.7694595,34.8635135 42.7694595,38.0310811 C42.7694595,41.1689189 41.6316216,43.8743243 39.3856757,46.1202703 M34.6802703,34.6472973 C33.7262162,33.6945946 32.6194595,33.2324324 31.2964865,33.2324324 C29.9424324,33.2324324 28.8356757,33.6945946 27.8816216,34.6472973 C26.96,35.5702703 26.4978378,36.7081081 26.4978378,38.0310811 C26.4978378,39.3540541 26.96,40.4918919 27.8816216,41.4445946 C28.8356757,42.3675676 29.9424324,42.8283784 31.2964865,42.8283784 C32.6194595,42.8283784 33.7262162,42.3675676 34.6802703,41.4445946 C35.6640541,40.4918919 36.1248649,39.3540541 36.1248649,38.0310811 C36.1248649,36.7081081 35.6640541,35.5702703 34.6802703,34.6472973" id="Fill-10" fill="#000000"></path>
                <g id="Group-14" transform="translate(44.594595, 0.854730)">
                    <mask id="mask-4" fill="white">
                        <use xlink:href="#path-3"></use>
                    </mask>
                    <g id="Clip-13"></g>
                    <path d="M59.2074324,21.2952703 L48.4195946,11.9114865 L40.7668919,16.4182432 L45.7344595,12.9371622 L31.9722973,0.496621622 L20.0925676,12.547973 L21.5087838,10.3587838 L19.6533784,8.56824324 L15.2290541,12.2885135 L13.0060811,11.5777027 L0.138513514,23.325 L61.9736486,23.325 L59.2074324,21.2952703 Z M48.5574324,13.4790541 L51.947973,16.2236486 L49.9493243,16.2817568 L48.4709459,17.8560811 L48.4344595,15.9331081 L41.1547297,17.8155405 L41.1209459,17.8155405 L48.5574324,13.4790541 Z M31.8722973,2.99121622 L36.6493243,9.31418919 C36.6493243,9.31418919 34.0047297,7.89121622 33.8317568,8.08445946 C33.6587838,8.2777027 29.5871622,13.3141892 29.5871622,13.3141892 L29.3574324,10.3385135 L28.5466216,11.9925676 L28.4317568,10.5033784 L20.7466216,14.347973 L31.8722973,2.99121622 Z M13.3290541,12.8358108 L14.6317568,14.1817568 L18.8655405,10.7804054 L17.475,13.8114865 L16.9993243,13.3641892 L12.652027,18.2074324 C12.652027,18.2074324 12.6398649,17.575 12.6344595,17.3452703 C12.6317568,17.1141892 11.2412162,17.7885135 11.2412162,17.7885135 L12.5898649,14.9898649 L9.79797297,15.5885135 L13.3290541,12.8358108 Z" id="Fill-12" fill="#005E9D" mask="url(#mask-4)"></path>
                </g>
                <polygon id="Fill-15" fill="#000000" points="37.8789189 19.3582432 32.937027 24.1758108 28.5437838 24.1758108 32.937027 19.3582432"></polygon>
            </g>
        </g>
    </g>
</svg>