<svg xmlns="http://www.w3.org/2000/svg" width="80" height="80" viewBox="0 0 80 80"><defs><style>.a{fill:#4d6fa9;}.b{fill:#fff;}</style></defs><path class="a" d="M74.483,80H5.517A5.534,5.534,0,0,1,0,74.483V5.517A5.534,5.534,0,0,1,5.517,0H74.483A5.534,5.534,0,0,1,80,5.517V74.483A5.534,5.534,0,0,1,74.483,80"/><path class="b" d="M216.367,88.275V102H204.011a2.754,2.754,0,0,0-2.746,2.746v8.238h13.729v13.729H201.265v27.459H187.536V126.718H176.552V112.988h10.984V104.75a16.471,16.471,0,0,1,15.1-16.475h13.729Z" transform="translate(-148.838 -74.177)"/></svg>