<svg xmlns="http://www.w3.org/2000/svg" xmlns:xlink="http://www.w3.org/1999/xlink" width="80" height="80" viewBox="0 0 80 80"><defs><style>.a{fill:url(#a);}.b{fill:url(#b);}.c{fill:url(#c);}</style><linearGradient id="a" x1="0.5" y1="0.008" x2="0.5" y2="0.998" gradientUnits="objectBoundingBox"><stop offset="0" stop-color="#e09b3d"/><stop offset="0.3" stop-color="#c74c4d"/><stop offset="0.6" stop-color="#c21975"/><stop offset="1" stop-color="#7024c4"/></linearGradient><linearGradient id="b" y1="-0.451" y2="1.462" xlink:href="#a"/><linearGradient id="c" y1="-1.396" y2="6.586" xlink:href="#a"/></defs><g transform="translate(0)"><path class="a" d="M56.168,0H23.832A23.859,23.859,0,0,0,0,23.832V56.168A23.859,23.859,0,0,0,23.832,80H56.168A23.859,23.859,0,0,0,80,56.168V23.832A23.86,23.86,0,0,0,56.168,0ZM71.952,56.168A15.785,15.785,0,0,1,56.168,71.952H23.832A15.785,15.785,0,0,1,8.048,56.168V23.832A15.784,15.784,0,0,1,23.832,8.048H56.168A15.784,15.784,0,0,1,71.952,23.832V56.168Z"/><path class="b" d="M155.03,133a22.03,22.03,0,1,0,22.03,22.03A22.055,22.055,0,0,0,155.03,133Zm0,35.492a13.461,13.461,0,1,1,13.461-13.461A13.461,13.461,0,0,1,155.03,168.492Z" transform="translate(-115.03 -115.03)"/><circle class="c" cx="4.614" cy="4.614" r="4.614" transform="translate(56.32 14.649)"/></g></svg>