<svg id="logoipsum"  xmlns="http://www.w3.org/2000/svg" viewBox="0 0 123.36 28.49"><defs><style>.cls-1{fill:#ffffff;}</style></defs><title>logo</title><path class="cls-1" d="M53.73,45.71c.36,0,.48.13.48.48v7.92h4.07c.35,0,.48.13.48.48v.7c0,.35-.13.48-.48.48H52.92c-.35,0-.49-.13-.49-.48v-9.1c0-.35.14-.48.49-.48Z" transform="translate(-27.21 -35.76)"/><path class="cls-1" d="M62.31,49.2c0-2.31,1.46-3.7,4-3.7s4,1.39,4,3.7v3.08c0,2.31-1.47,3.7-4,3.7s-4-1.39-4-3.7Zm6.32,0c0-1.3-.81-2-2.27-2s-2.26.71-2.26,2v3.1c0,1.31.8,2,2.26,2s2.27-.72,2.27-2Z" transform="translate(-27.21 -35.76)"/><path class="cls-1" d="M82.22,50.26c.39,0,.48.13.48.48v1.9A3,3,0,0,1,81.64,55a4.35,4.35,0,0,1-3,.94c-2.59,0-4-1.39-4-3.7v-3.1c0-2.28,1.46-3.68,4-3.68,2,0,3.3.79,3.85,2.37a.43.43,0,0,1-.18.58l-.12,0-.78.27c-.34.12-.48.05-.6-.3a2.06,2.06,0,0,0-2.17-1.3c-1.47,0-2.27.71-2.27,2V52.3c0,1.31.81,2,2.27,2S81,53.63,81,52.65v-.74H78.83c-.36,0-.49-.14-.49-.49v-.68c0-.35.13-.48.49-.48Z" transform="translate(-27.21 -35.76)"/><path class="cls-1" d="M86.83,49.2c0-2.31,1.46-3.7,4-3.7s4,1.39,4,3.7v3.08c0,2.31-1.47,3.7-4,3.7s-4-1.39-4-3.7Zm6.31,0c0-1.3-.81-2-2.26-2s-2.27.71-2.27,2v3.1c0,1.31.81,2,2.27,2s2.26-.72,2.26-2Z" transform="translate(-27.21 -35.76)"/><path class="cls-1" d="M99.54,46c0-.22.07-.29.29-.29h.46c.22,0,.27.07.27.29v9.48c0,.22,0,.29-.27.29h-.46c-.22,0-.29-.07-.29-.29Z" transform="translate(-27.21 -35.76)"/><path class="cls-1" d="M109.67,45.71a3.14,3.14,0,1,1,0,6.28h-3v3.49c0,.22,0,.29-.26.29h-.47c-.21,0-.29-.07-.29-.29V46c0-.22.08-.29.29-.29ZM109.58,51a2.18,2.18,0,1,0,0-4.36h-3V51Z" transform="translate(-27.21 -35.76)"/><path class="cls-1" d="M120.62,45.51a3.61,3.61,0,0,1,3.72,2.18c.08.16,0,.29-.16.37l-.44.2c-.18.07-.25.06-.36-.13a2.72,2.72,0,0,0-2.76-1.64c-1.69,0-2.61.67-2.61,1.87a1.51,1.51,0,0,0,1.27,1.54,6.77,6.77,0,0,0,1.66.32,6.85,6.85,0,0,1,2,.41A2.24,2.24,0,0,1,124.5,53c0,1.87-1.36,3-3.86,3a3.61,3.61,0,0,1-3.83-2.43.27.27,0,0,1,.12-.36l0,0,.44-.16a.26.26,0,0,1,.35.15v0a2.86,2.86,0,0,0,2.86,1.8c1.89,0,2.82-.66,2.82-2a1.49,1.49,0,0,0-1.17-1.53,7.16,7.16,0,0,0-1.59-.28l-1.08-.14a8.68,8.68,0,0,1-1-.27,2.72,2.72,0,0,1-.89-.47,2.44,2.44,0,0,1-.8-1.91C117,46.65,118.31,45.51,120.62,45.51Z" transform="translate(-27.21 -35.76)"/><path class="cls-1" d="M129.89,52.35a2.78,2.78,0,0,0,5.55,0V46c0-.22.07-.29.29-.29h.46c.22,0,.29.07.29.29v6.34c0,2.27-1.34,3.64-3.81,3.64s-3.81-1.37-3.81-3.64V46c0-.22.07-.29.28-.29h.47c.21,0,.28.07.28.29Z" transform="translate(-27.21 -35.76)"/><path class="cls-1" d="M150.28,45.71c.22,0,.29.07.29.29v9.48c0,.22-.07.29-.29.29h-.42c-.21,0-.28-.07-.28-.29V49.71a19.13,19.13,0,0,1,.17-2.51h-.06a18.13,18.13,0,0,1-1.09,2.21l-2.15,3.79a.36.36,0,0,1-.33.22h-.28a.38.38,0,0,1-.34-.22l-2.18-3.83a15.89,15.89,0,0,1-1-2.18h-.06a21.35,21.35,0,0,1,.16,2.53v5.76c0,.22-.07.29-.29.29h-.39c-.22,0-.29-.07-.29-.29V46c0-.22.07-.29.29-.29h.36a.4.4,0,0,1,.4.23l3.5,6.22L149.48,46c.11-.21.17-.24.39-.24Z" transform="translate(-27.21 -35.76)"/><path class="cls-1" d="M35.94,53.55v7.23a1,1,0,0,1-2.09,0V53.56a1.79,1.79,0,0,0,1,.34A1.71,1.71,0,0,0,35.94,53.55Zm8.9-2.09a1,1,0,0,0-1,1v1.26a1,1,0,0,0,2.09,0V52.51a1,1,0,0,0-.94-1ZM31.58,56.29a1.79,1.79,0,0,1-1-.34V63.2a1.05,1.05,0,0,0,2.1,0h0V56A1.86,1.86,0,0,1,31.58,56.29Zm10-7a1,1,0,0,0-1,1v5.62a1,1,0,1,0,2.1,0h0v-5.5a1,1,0,0,0-.94-1,.43.43,0,0,0-.16,0Zm-3.32,2.14a1.8,1.8,0,0,1-1-.34v7.27a1,1,0,1,0,2.1,0h0V51.1a1.74,1.74,0,0,1-1.1.35ZM29.31,57V36.69a.94.94,0,0,0-.94-.93h-.22a.94.94,0,0,0-.94.93V57a.94.94,0,0,0,.94.94h.22A.94.94,0,0,0,29.31,57Zm2.38-1.48h-.22a.94.94,0,0,1-.94-.94V39.11a.94.94,0,0,1,.94-.93h.22a.94.94,0,0,1,.94.93V54.6a.94.94,0,0,1-.94.94ZM35,53.14h-.23a.93.93,0,0,1-.93-.93h0V41.51a.93.93,0,0,1,.92-.94H35a.94.94,0,0,1,.93.94v10.7a.93.93,0,0,1-.93.93Zm3.31-2.45H38.1a.94.94,0,0,1-.94-.93V44A1,1,0,0,1,38,43h.28a.94.94,0,0,1,.94.94v5.8a.94.94,0,0,1-.93.95h0Zm3.32-2.15h-.22a.94.94,0,0,1-.94-.94V46.11a.94.94,0,0,1,.94-.93h.22a.94.94,0,0,1,.94.93V47.6a.94.94,0,0,1-.93.94Z" transform="translate(-27.21 -35.76)"/></svg>