<svg xmlns="http://www.w3.org/2000/svg" width="80" height="80" viewBox="0 0 80 80"><defs><style>.a{fill:#1da1f2;}</style></defs><path class="a" d="M72,0H8A8.024,8.024,0,0,0,0,8V72a8.024,8.024,0,0,0,8,8H72a8.024,8.024,0,0,0,8-8V8A8.024,8.024,0,0,0,72,0ZM62.8,29.2c-.4,18.4-12,31.2-29.6,32-7.2.4-12.4-2-17.2-4.8,5.2.8,12-1.2,15.6-4.4a10.805,10.805,0,0,1-10-7.6c1.6.4,3.2,0,4.4,0-4.8-1.6-8-4.4-8.4-10.8A8.063,8.063,0,0,0,22,34.8c-3.6-2-6-9.6-3.2-14.4C24,26,30.4,30.8,40.8,31.6,38,20.4,53.2,14.4,59.2,22c2.8-.4,4.8-1.6,6.8-2.4a11.309,11.309,0,0,1-4.4,6A22.929,22.929,0,0,0,67.2,24C66.8,26,64.8,27.6,62.8,29.2Z"/></svg>